<?xml version="1.0" encoding="utf-8"?>
<!-- Generator: Adobe Illustrator 27.5.0, SVG Export Plug-In . SVG Version: 6.00 Build 0)  -->
<svg version="1.1" xmlns="http://www.w3.org/2000/svg" xmlns:xlink="http://www.w3.org/1999/xlink" x="0px" y="0px"
	 viewBox="0 0 500 500" style="enable-background:new 0 0 500 500;" xml:space="preserve">
<g id="BACKGROUND">
	<rect style="fill-rule:evenodd;clip-rule:evenodd;fill:#DAEDEF;" width="500" height="500"/>
</g>
<g id="OBJECTS">
	<g>
		<g>
			<g>
				<path style="fill:#F5EEE9;" d="M254.422,91.981c-28.388,0-130.137,97.346-130.137,98.583v7.604c0,0.001,0,0.004,0,0.006v148.902
					c0,1.584,1.004,2.868,2.242,2.868l255.792,1.433c1.237,0,2.241-1.283,2.241-2.866V198.967v-0.793v-7.609
					C384.56,189.327,282.81,91.981,254.422,91.981z"/>
				<path style="fill:#E8E1DE;" d="M254.466,116.84c-25.667,0-117.666,88.017-117.666,89.136v6.875c0,0.001-0.001,0.003-0.001,0.005
					v134.632c0,1.433,0.908,2.594,2.027,2.594l231.278,1.295c1.12,0,2.026-1.16,2.026-2.592V213.573v-0.716v-6.88
					C372.131,204.857,280.134,116.84,254.466,116.84z"/>
				<g>
					
						<path style="fill:none;stroke:#008C86;stroke-width:0.8965;stroke-linecap:round;stroke-linejoin:round;stroke-miterlimit:10;" d="
						M232.159,101.354c0,0,2.914-11.308,12.402-9.082c2.392,0.561,4.594,4.012-0.822,9.429"/>
					<path style="fill:#00A984;" d="M246.764,97.389c0,0-10.031,2.046-8.786,6.75c0.364,1.368,3.253,1.298,5.654-0.317
						C243.632,103.822,247.235,100.972,246.764,97.389z"/>
					<path style="fill:#00A984;" d="M239.821,89.826c-0.003-4.767,3.343-9.424,7.088-7.577c2.635,1.298,1.927,4.895-6.589,9.729
						C240.202,92.046,239.821,90.705,239.821,89.826z"/>
				</g>
				<g>
					<path style="fill:#FFA433;" d="M287.043,91.314c0,0-7.503-3.593-6.452-12.257c0.23-1.905,1.72-4.05,2.33-2.248
						c3.054,9.046,15.513,20.351,15.513,20.351s-1.16,4.842-7.115,2.868C289.042,99.274,286.509,96.657,287.043,91.314z"/>
					
						<path style="fill:none;stroke:#7C4B34;stroke-width:2.7483;stroke-linecap:round;stroke-linejoin:round;stroke-miterlimit:10;" d="
						M285.624,83.297c0,0,0.156,14.124,13.59,14.658"/>
					<path style="fill:#FFCB29;" d="M299.941,88.182c-0.518,0.007-1.021,0.012-1.516,0.017c0.336-1.227,0.527-2.585,0.527-4.019
						c0-5.414-2.666-11.379-5.955-11.379c-3.289,0-5.955,5.965-5.955,11.379c0,4.132,1.69,7.042,3.752,9.104
						c2.063,2.061,5.021,3.932,9.308,3.874c5.413-0.074,9.768-2.801,9.722-6.089C309.781,87.781,305.354,88.108,299.941,88.182z"/>
				</g>
			</g>
			<path style="fill:#FF4444;" d="M249.161,119.761c-13.854-6.082-28.464-3.311-32.636,6.189c-0.754,1.717-1.11,3.539-1.114,5.404
				c-3.931-0.742-7.949-0.501-11.782,0.888c-10.893,3.948-16.987,15.973-15.897,29.19c-3.079,1.161-6.204,3.611-8.612,7.066
				c-4.71,6.76-4.889,14.776-0.4,17.904c1.468,1.023,3.256,1.385,5.16,1.188c-3.099,4.507-4.17,9.737-2.446,14.494
				c3.275,9.037,15.389,12.936,27.056,8.708c1.991-0.722,3.836-1.636,5.516-2.698c4.021,7.207,16.805,9.343,29.718,4.663
				c13.75-4.983,22.441-15.807,19.406-24.174c-0.25-0.689-0.576-1.335-0.963-1.946c5.958-6.254,8.395-14.837,5.565-22.643
				c-1.406-3.88-3.936-7.072-7.179-9.425c2.763-1.577,4.907-3.789,6.137-6.592C270.863,138.476,263.016,125.843,249.161,119.761z"/>
			<g>
				<path style="fill:#FF7C57;" d="M307.998,211.48c-1.194,0-2.405-0.279-3.54-0.869c-3.764-1.958-5.236-6.586-3.287-10.355
					c0.303-0.586,7.572-14.459,21.423-25.676c19.04-15.418,41.1-18.513,63.789-8.951c3.917,1.651,5.756,6.165,4.105,10.081
					c-1.651,3.917-6.165,5.755-10.082,4.104c-17.234-7.263-33.308-5.094-47.772,6.444c-11.48,9.159-17.738,20.967-17.8,21.086
					C313.458,209.972,310.774,211.48,307.998,211.48z"/>
			</g>
			<g>
				<path style="fill:#FFB646;" d="M406.945,135.678c-1.408-4.878-5.658-8.189-10.454-8.681c1.9-1.72,3.262-3.894,3.838-6.409
					c1.793-7.831-4.659-15.988-14.412-18.222c-1.55-0.354-3.09-0.538-4.59-0.564c-1.814-4.437-5.711-7.963-10.771-9.121
					c-8.223-1.883-16.402,3.192-18.265,11.335c-0.703,3.065-0.41,6.128,0.666,8.856c-1.823,1.219-3.505,2.674-5.007,4.329
					c-1.444-3.708-4.548-6.625-8.603-7.555c-6.641-1.52-13.314,2.866-14.901,9.799c-1.051,4.587,0.391,9.139,3.407,12.134
					c-1.397,1.192-2.412,2.734-2.827,4.545c-1.196,5.221,2.968,10.628,9.299,12.078c3.077,0.704,6.093,0.338,8.524-0.817
					c3.154,7.331,9.413,13.026,17.497,14.877c11.317,2.592,22.698-3.144,28.324-13.316c2.845,1.855,6.442,2.532,9.963,1.546
					C405.065,148.692,408.787,142.06,406.945,135.678z"/>
				<path style="fill:#003D60;" d="M308.822,318.452c4.198-13.917,24.308-53.23,24.308-53.23l22.115,2.09
					c2.209-4.53,7.005-2.756,12.803-2.208c7.281,0.688,13.438-1.46,12.818,5.114l-10.617,112.378
					c-0.622,6.575-7.027,11.347-14.307,10.659c-7.28-0.689-12.68-6.575-12.059-13.149l7.426-78.611c0,0-10.329-8.029-17.118,24.607
					c-2.855,13.729-12.296,54.517-12.296,54.517l-22.206-4.199C299.689,376.419,304.57,332.544,308.822,318.452z"/>
				<g>
					<g>
						<path style="fill:#00AFA3;" d="M297.473,235.513c-3.459,0-6.6-2.345-7.467-5.853c-1.019-4.126,1.499-8.298,5.627-9.317
							c25.654-6.335,46.31-40.154,46.516-40.495c2.193-3.638,6.922-4.812,10.562-2.622c3.638,2.191,4.816,6.912,2.629,10.553
							c-0.97,1.615-24.118,39.63-56.016,47.506C298.703,235.44,298.083,235.513,297.473,235.513z"/>
					</g>
				</g>
				<path style="fill:#00AFA3;" d="M389.73,268.978c-1.304,13.803-20.51,9.77-34.312,8.466l0,0
					c-13.801-1.304-25.196-0.162-23.893-13.964l6.775-71.697c1.302-13.802,13.548-23.933,27.349-22.629l0,0
					c13.802,1.304,29.173,17.035,27.869,30.835L389.73,268.978z"/>
				<g>
					<g>
						<path style="fill:#FFA077;" d="M363.278,183.274c4.154-0.9,6.792-4.998,5.893-9.151c-1.273-5.882,0.595-15.3,1.422-18.431
							c1.084-4.106-1.362-8.318-5.467-9.409c-4.105-1.089-8.315,1.347-9.408,5.451c-0.403,1.513-3.878,15.09-1.591,25.647
							C355.028,181.535,359.123,184.174,363.278,183.274z"/>
					</g>
					<g>
						<path style="fill:#FF865E;" d="M353.355,169.036c0.046-8.308,2.059-16.172,2.362-17.302c1.094-4.104,5.304-6.54,9.408-5.451
							c4.104,1.09,6.551,5.302,5.467,9.409c-0.484,1.831-1.324,5.809-1.683,9.973L353.355,169.036z"/>
					</g>
					<g>
						<path style="fill:#FFA077;" d="M344.416,135.089c-0.241,2.909-2.791,5.072-5.7,4.833l0,0
							c-2.908-0.239-5.071-2.793-4.831-5.699l0.116-1.403c0.237-2.908,2.79-5.071,5.697-4.832l0,0c2.909,0.24,5.073,2.791,4.833,5.7
							L344.416,135.089z"/>
						<path style="fill:#FFA077;" d="M388.603,138.73c-0.238,2.909-2.793,5.072-5.699,4.832l0,0c-2.909-0.24-5.072-2.792-4.833-5.7
							l0.115-1.402c0.24-2.908,2.792-5.071,5.701-4.832l0,0c2.907,0.24,5.07,2.792,4.832,5.7L388.603,138.73z"/>
						<path style="fill:#FFA077;" d="M356.426,164.172l5.151,0.425c10.115,0.831,18.938-6.047,19.706-15.369l1.465-17.789
							l0.005-0.001l0.618-7.527c0.766-9.319-6.81-17.551-16.924-18.383l-5.153-0.426c-2.992-0.247-5.875,0.181-8.464,1.15
							c-6.17,2.301-10.702,7.659-11.242,14.218l-2.087,25.317C338.735,155.108,346.309,163.34,356.426,164.172z"/>
						<g>
							
								<path style="fill:none;stroke:#E52C14;stroke-width:0.9189;stroke-linecap:round;stroke-linejoin:round;stroke-miterlimit:10;" d="
								M359.506,128.71l-0.375,10.751c0,0-0.98,4.849,3.329,4.746"/>
							<path style="fill:#892923;" d="M354.602,136.189c-0.1,1.327-0.957,2.344-1.916,2.274c-0.959-0.074-1.657-1.206-1.557-2.535
								c0.1-1.327,0.957-2.345,1.916-2.273C354.006,133.727,354.702,134.862,354.602,136.189z"/>
							
								<path style="fill:none;stroke:#CB2C1D;stroke-width:1.3784;stroke-linecap:round;stroke-linejoin:round;stroke-miterlimit:10;" d="
								M355.037,123.939c0,0-3.836-0.78-5.792,2.112"/>
							<path style="fill:#892923;" d="M365.781,136.769c0.099,1.327,0.956,2.345,1.916,2.273c0.959-0.072,1.656-1.206,1.557-2.534
								c-0.1-1.327-0.958-2.345-1.916-2.273C366.378,134.307,365.682,135.441,365.781,136.769z"/>
							
								<path style="fill:none;stroke:#CB2C1D;stroke-width:1.3784;stroke-linecap:round;stroke-linejoin:round;stroke-miterlimit:10;" d="
								M365.27,124.513c0,0,3.853-0.68,5.734,2.262"/>
							
								<path style="fill:none;stroke:#E52C14;stroke-width:0.9189;stroke-linecap:round;stroke-linejoin:round;stroke-miterlimit:10;" d="
								M364.682,145.915c-2.063,2.097-5.585,1.974-7.869-0.273"/>
						</g>
					</g>
				</g>
				<g>
					<path style="fill:#FFA077;" d="M393.182,194.268c-5.972,0-11.848-1.187-17.26-3.589c-3.886-1.725-5.637-6.271-3.913-10.157
						c1.725-3.884,6.271-5.636,10.157-3.912c8.374,3.717,18.671,2.837,27.541-2.353c12.851-7.52,20.952-22.498,22.811-42.174
						c0.4-4.231,4.164-7.336,8.387-6.938c4.231,0.4,7.338,4.154,6.938,8.386c-2.337,24.74-13.121,43.923-30.361,54.012
						C409.862,192.001,401.433,194.268,393.182,194.268z"/>
				</g>
				<g>
					<g>
						<path style="fill:#00AFA3;" d="M393.208,194.259c-6.011,0-11.909-1.193-17.286-3.58c-3.886-1.725-5.637-6.271-3.913-10.157
							c1.725-3.885,6.273-5.637,10.157-3.912c6.904,3.064,15.301,3.018,23.035-0.129c9.939-4.043,16.152-13.059,20.867-24.847
							c1.579-3.947-0.754-7.417,11.86-3.99c12.615,3.427,7.965,6.897,6.387,10.843c-6.281,15.707-19.466,26.62-33.314,32.252
							C405.232,193.085,399.167,194.259,393.208,194.259z"/>
					</g>
				</g>
			</g>
			<g>
				<path style="fill:#002B43;" d="M319.635,142.037h-49.36c-0.4,5.857-2.576,27.764-12.872,30.899c0,0,3.017,19.544,37.553,19.544
					c34.534,0,37.553-19.544,37.553-19.544C322.211,169.801,320.034,147.894,319.635,142.037z"/>
				<g>
					<path style="fill:#FF7C57;" d="M286.556,208.587c-1.563,0-3.14-0.474-4.503-1.46c-0.229-0.163-9.689-6.854-23.217-10.829
						c-17.505-5.146-33.436-3.56-47.349,4.714c-3.653,2.173-8.376,0.972-10.548-2.68c-2.173-3.654-0.973-8.377,2.681-10.549
						c17.641-10.493,38.417-12.601,60.085-6.097c16.008,4.805,26.92,12.642,27.377,12.973c3.439,2.496,4.205,7.308,1.711,10.749
						C291.286,207.484,288.938,208.587,286.556,208.587z"/>
				</g>
				<path style="fill:#FF8962;" d="M317.72,268.359l4.955-54.092c0.792-13.84-9.786-25.703-23.627-26.496
					c-13.839-0.792-25.703,9.786-26.494,23.626l-4.955,54.093L317.72,268.359z"/>
				<path style="fill:#FFD551;" d="M317.72,268.359l4.955-54.092c0.792-13.84-9.786-25.703-23.627-26.496
					c-13.839-0.792-25.703,9.786-26.494,23.626l-4.955,54.093L317.72,268.359z"/>
				<g>
					<g>
						<path style="fill:#FF8962;" d="M298.222,203.923c4.095-1.143,6.487-5.389,5.345-9.483c-1.619-5.796-0.307-15.308,0.333-18.483
							c0.841-4.163-1.849-8.224-6.01-9.071c-4.163-0.845-8.221,1.835-9.072,5.996c-0.313,1.534-2.982,15.292-0.076,25.697
							C289.884,202.672,294.127,205.065,298.222,203.923z"/>
					</g>
					<g>
						<path style="fill:#FF7049;" d="M287.478,190.294c-0.443-8.297,1.104-16.266,1.339-17.411c0.852-4.161,4.909-6.841,9.072-5.996
							c4.161,0.847,6.851,4.908,6.01,9.071c-0.374,1.856-0.978,5.877-1.092,10.055L287.478,190.294z"/>
					</g>
					<g>
						<path style="fill:#FF8962;" d="M276.556,156.932c-0.068,2.918-2.487,5.228-5.405,5.159l0,0
							c-2.918-0.067-5.227-2.489-5.159-5.405l0.033-1.407c0.067-2.917,2.488-5.227,5.405-5.159l0,0
							c2.918,0.069,5.229,2.488,5.159,5.406L276.556,156.932z"/>
						<path style="fill:#FF8962;" d="M320.882,157.965c-0.067,2.918-2.488,5.228-5.405,5.16l0,0
							c-2.918-0.068-5.229-2.489-5.16-5.406l0.032-1.407c0.07-2.917,2.489-5.226,5.407-5.158l0,0
							c2.916,0.068,5.225,2.487,5.158,5.405L320.882,157.965z"/>
						<path style="fill:#FF8962;" d="M290.257,185.257l5.168,0.122c10.147,0.235,18.548-7.151,18.769-16.501l0.414-17.845
							l0.005-0.002l0.174-7.549c0.215-9.348-7.831-17.12-17.979-17.356l-5.166-0.121c-3.004-0.07-5.855,0.526-8.384,1.646
							c-6.023,2.66-10.233,8.275-10.385,14.855l-0.595,25.396C272.063,177.249,280.11,185.021,290.257,185.257z"/>
						<g>
							
								<path style="fill:none;stroke:#E52C14;stroke-width:0.9189;stroke-linecap:round;stroke-linejoin:round;stroke-miterlimit:10;" d="
								M292.73,151.634l-0.878,10.723c0,0-1.207,4.798,3.103,4.896"/>
							<path style="fill:#892923;" d="M286.745,158.167c-0.031,1.331-0.836,2.391-1.797,2.37c-0.961-0.023-1.716-1.119-1.685-2.451
								c0.031-1.331,0.836-2.392,1.797-2.369C286.023,155.739,286.777,156.836,286.745,158.167z"/>
							<path style="fill:#892923;" d="M302.248,158.528c-0.031,1.331-0.835,2.391-1.799,2.369c-0.962-0.021-1.715-1.119-1.684-2.45
								c0.031-1.33,0.835-2.391,1.798-2.369C301.524,156.101,302.279,157.198,302.248,158.528z"/>
							
								<path style="fill:none;stroke:#CB2C1D;stroke-width:1.3784;stroke-linecap:round;stroke-linejoin:round;stroke-miterlimit:10;" d="
								M286.563,149.956c0,0-3.85-0.701-5.747,2.231"/>
							
								<path style="fill:none;stroke:#CB2C1D;stroke-width:1.3784;stroke-linecap:round;stroke-linejoin:round;stroke-miterlimit:10;" d="
								M299.23,149.704c0,0,3.88-0.521,5.639,2.496"/>
						</g>
					</g>
					<path style="fill:#002B43;" d="M299.692,170.067c0.031,0.559-0.035,1.105-0.191,1.615c-0.582,1.978-2.432,3.475-4.698,3.602
						c-1.556,0.088-2.985-0.489-3.989-1.471c-0.842-0.825-1.383-1.921-1.452-3.162c-0.155-2.718,2.224-1.749,5.073-1.911
						C297.288,168.579,299.539,167.351,299.692,170.067z"/>
					<path style="fill:#FF6099;" d="M299.501,171.682c-0.582,1.978-2.432,3.475-4.698,3.602c-1.556,0.088-2.985-0.489-3.989-1.471
						c0.635-2.015,2.463-3.527,4.696-3.653C297.056,170.072,298.487,170.665,299.501,171.682z"/>
				</g>
				<path style="fill:#FFD551;" d="M270.951,231.984c-7.191,37.334-17.13,77.673-16.453,90.778
					c1.177,22.782,76.54,14.899,94.129-2.689c0,0-19.424-73.071-27.339-87.59C315.265,221.433,273.333,219.621,270.951,231.984z"/>
				<path style="fill:#002B43;" d="M320.495,146.213c-0.356-14.04-11.842-25.314-25.967-25.314
					c-14.127,0-25.612,11.274-25.968,25.314c0,0,11.427,0.775,15.129,0c12.949-2.712,16.817-10.25,16.817-10.25
					s-0.678,6.151,10.59,10.25C317.133,148.41,320.495,146.213,320.495,146.213z"/>
			</g>
			<g>
				<path style="fill:#002B43;" d="M145.115,123.561c0,0,2.586,21.232,7.466,18.953c0,0,1.602-14.981-5.03-21.614L145.115,123.561z"
					/>
				<path style="fill:#002B43;" d="M101.893,125.45c0,0-15.259,16.555,15.448,42.423l5.34-4.786
					C122.681,163.087,123.903,128.271,101.893,125.45z"/>
				<g>
					<path style="fill:#FF7347;" d="M152.298,199.821c-3.513,0-6.685-2.42-7.498-5.991c-0.943-4.145,1.653-8.269,5.798-9.212
						c7.119-1.619,11.259-7.604,13.477-12.338c7.741-16.52,4.746-42.906-7.63-67.223c-1.928-3.789-0.42-8.422,3.368-10.35
						c3.789-1.928,8.423-0.42,10.351,3.368c14.67,28.826,17.678,59.761,7.85,80.735c-5.195,11.085-13.718,18.478-24.002,20.817
						C153.438,199.758,152.864,199.821,152.298,199.821z"/>
				</g>
				<g>
					<g>
						<path style="fill:#00ACEC;" d="M152.298,199.821c-3.513,0-6.685-2.42-7.497-5.991c-0.943-4.145,1.652-8.269,5.797-9.212
							c6.895-1.568,10.979-7.251,13.191-11.741c3.588-7.285,3.263-17.256,2.485-28.079c-0.305-4.239,17.895-5.343,18.2-1.104
							c0.984,13.703-2.03,26.147-6.876,35.985c-5.217,10.59-13.593,17.674-23.584,19.948
							C153.438,199.758,152.864,199.821,152.298,199.821z"/>
					</g>
				</g>
				<g>
					<path style="fill:#FF7347;" d="M168.14,88.995c-4.851-3.772-11.84-2.897-15.612,1.952c-3.772,4.851-2.898,11.84,1.953,15.612
						c4.849,3.771,11.84,2.898,15.612-1.952C173.865,99.757,172.99,92.767,168.14,88.995z"/>
					<g>
						<path style="fill:#FF7347;" d="M154.736,105.803c-0.763,0-1.517-0.338-2.022-0.984c-0.073-0.09-3.691-4.536-11.943-7.939
							c-1.31-0.541-1.935-2.042-1.393-3.353c0.54-1.311,2.039-1.936,3.351-1.394c9.657,3.983,13.86,9.305,14.034,9.529
							c0.869,1.12,0.665,2.733-0.455,3.602C155.84,105.627,155.286,105.803,154.736,105.803z"/>
					</g>
					<g>
						<path style="fill:#FF7347;" d="M154.393,98.238c-0.933,0-1.833-0.51-2.288-1.398c-0.061-0.119-6.146-11.936-11.899-17.177
							c-1.048-0.955-1.125-2.579-0.169-3.627c0.954-1.048,2.578-1.124,3.627-0.169c6.444,5.87,12.747,18.116,13.013,18.634
							c0.645,1.262,0.145,2.81-1.117,3.455C155.186,98.147,154.787,98.238,154.393,98.238z"/>
					</g>
					<g>
						<path style="fill:#FF7347;" d="M157.69,93.287c-0.98,0-1.917-0.564-2.344-1.517c-0.051-0.115-5.237-11.604-10.22-17.753
							c-0.893-1.102-0.723-2.718,0.378-3.611c1.101-0.893,2.718-0.724,3.611,0.378c5.407,6.672,10.693,18.388,10.916,18.883
							c0.58,1.293,0.002,2.813-1.291,3.393C158.399,93.214,158.041,93.287,157.69,93.287z"/>
					</g>
					<g>
						<path style="fill:#FF7347;" d="M163.705,94.204c-1.071,0-2.07-0.675-2.432-1.746c-0.04-0.12-4.102-12.053-8.474-18.65
							c-0.783-1.183-0.46-2.775,0.723-3.558c1.182-0.783,2.775-0.46,3.558,0.722c4.743,7.159,8.883,19.328,9.058,19.842
							c0.454,1.343-0.266,2.799-1.609,3.254C164.255,94.161,163.977,94.204,163.705,94.204z"/>
					</g>
					<g>
						<path style="fill:#FF7347;" d="M169.472,97.56c-1.368,0-2.505-1.079-2.563-2.458l0,0c-0.003-0.071-0.349-7.183-3.67-14.115
							c-0.612-1.279-0.072-2.812,1.207-3.424c1.279-0.611,2.812-0.072,3.424,1.206c3.792,7.919,4.156,15.788,4.169,16.119
							c0.059,1.417-1.043,2.613-2.46,2.671C169.543,97.56,169.507,97.56,169.472,97.56z"/>
					</g>
				</g>
				<path style="fill:#003D60;" d="M203.604,328.406c-4.892-13.688-26.954-51.94-26.954-51.94l-21.983,3.199
					c-2.434-4.414-7.135-2.399-12.897-1.561c-7.237,1.054-13.495-0.782-12.543,5.752l16.255,111.702
					c0.951,6.536,7.588,10.979,14.826,9.927c7.236-1.053,12.332-7.206,11.381-13.739l-11.371-78.139c0,0,9.913-8.538,18.333,23.715
					c3.544,13.569,15.024,53.829,15.024,53.829l21.967-5.311C215.643,385.841,208.56,342.267,203.604,328.406z"/>
				<path style="fill:#00ACEC;" d="M184.004,276.794c1.997,13.719-13.737,13.776-27.456,15.773l0,0
					c-13.719,1.996-29.075,6.464-31.071-7.256l-5.818-71.928c-1.996-13.718-2.083-19.731,21.225-28.455l0,0
					c13.719-1.996,26.323,7.526,28.32,21.244L184.004,276.794z"/>
				<g>
					<g>
						<path style="fill:#FF7347;" d="M141.152,197.858c-4.25-0.047-7.658-3.53-7.612-7.781c0.066-6.018-3.657-14.868-5.097-17.77
							c-1.887-3.804-0.338-8.422,3.463-10.314c3.803-1.892,8.417-0.351,10.314,3.448c0.699,1.402,6.831,14.003,6.71,24.805
							C148.884,194.497,145.403,197.904,141.152,197.858z"/>
					</g>
					<g>
						<path style="fill:#FF572D;" d="M148.012,181.915c-1.716-8.13-5.27-15.429-5.792-16.475c-1.897-3.799-6.511-5.34-10.314-3.448
							c-3.801,1.893-5.35,6.51-3.463,10.314c0.841,1.697,2.463,5.425,3.652,9.432L148.012,181.915z"/>
					</g>
					<g>
						<path style="fill:#FF7347;" d="M149.945,146.865c0.819,2.802,3.754,4.408,6.555,3.588l0,0
							c2.802-0.819,4.408-3.755,3.588-6.554l-0.395-1.351c-0.818-2.801-3.754-4.407-6.554-3.588l0,0
							c-2.801,0.819-4.408,3.754-3.587,6.554L149.945,146.865z"/>
						<path style="fill:#FF7347;" d="M107.392,159.312c0.819,2.802,3.754,4.408,6.555,3.589l0,0c2.801-0.82,4.407-3.755,3.588-6.555
							l-0.395-1.351c-0.82-2.801-3.754-4.407-6.556-3.587l0,0c-2.8,0.819-4.406,3.753-3.587,6.555L107.392,159.312z"/>
						<path style="fill:#FF7347;" d="M144.026,177.767l-4.962,1.453c-9.741,2.847-19.766-2.118-22.393-11.095l-5.009-17.131
							l-0.005-0.001l-2.119-7.249c-2.623-8.976,3.144-18.562,12.885-21.41l4.961-1.453c2.884-0.844,5.792-1.003,8.524-0.575
							c6.505,1.014,12.021,5.352,13.869,11.669l7.133,24.382C159.534,165.333,153.768,174.919,144.026,177.767z"/>
						<g>
							
								<path style="fill:none;stroke:#892923;stroke-width:0.9189;stroke-linecap:round;stroke-linejoin:round;stroke-miterlimit:10;" d="
								M134.083,145.405l3.618,10.132c0,0,2.404,4.324-1.732,5.532"/>
							<path style="fill:#892923;" d="M140.768,150.7c0.273,1.303,1.258,2.198,2.2,2.001c0.941-0.199,1.482-1.414,1.208-2.717
								c-0.274-1.303-1.258-2.199-2.2-2.001C141.035,148.181,140.493,149.398,140.768,150.7z"/>
							<path style="fill:#892923;" d="M125.593,153.89c0.275,1.302,1.258,2.198,2.201,2c0.942-0.197,1.483-1.415,1.209-2.717
								c-0.275-1.302-1.259-2.199-2.2-2.001C125.86,151.37,125.319,152.587,125.593,153.89z"/>
							
								<path style="fill:none;stroke:#892923;stroke-width:1.3784;stroke-linecap:round;stroke-linejoin:round;stroke-miterlimit:10;" d="
								M138.71,142.269c0,0,3.539-1.671,6.129,0.671"/>
							
								<path style="fill:none;stroke:#892923;stroke-width:1.3784;stroke-linecap:round;stroke-linejoin:round;stroke-miterlimit:10;" d="
								M127.738,145.104c0,0-3.882,0.498-4.803,3.867"/>
						</g>
						<path style="fill:#002B43;" d="M142.958,164.608c-0.174,1.215-0.815,2.329-1.782,3.121c-0.652,0.547-1.449,0.938-2.348,1.12
							c-1.524,0.313-3.026-0.053-4.158-0.879c-0.95-0.695-1.646-1.702-1.895-2.921l-0.008-0.06
							c-0.495-2.596,1.977-1.995,4.755-2.563c2.799-0.57,4.851-2.109,5.392,0.557C143.03,163.531,143.039,164.083,142.958,164.608z"
							/>
						<path style="fill:#FF6099;" d="M141.176,167.729c-0.652,0.547-1.449,0.938-2.348,1.12c-1.524,0.313-3.026-0.053-4.158-0.879
							c-0.95-0.695-1.646-1.702-1.895-2.921l-0.008-0.06c0.705-0.534,1.545-0.906,2.481-1.042
							C137.922,163.557,140.428,165.21,141.176,167.729z"/>
					</g>
				</g>
				<g>
					<path style="fill:#FF7347;" d="M118.301,272.435c-6.658,0-11.209-2.471-14.077-4.905c-11.313-9.604-11.196-30.964,0.286-51.944
						c2.041-3.729,6.718-5.096,10.446-3.057c3.729,2.04,5.098,6.718,3.057,10.446c-8.794,16.069-7.873,29.386-3.827,32.82
						c3.347,2.841,13.14,1.552,29.732-11.427c3.348-2.618,8.185-2.027,10.804,1.32c2.619,3.348,2.028,8.184-1.32,10.804
						c-10.182,7.965-19.431,13-27.491,14.97C123.115,272.146,120.583,272.435,118.301,272.435z"/>
				</g>
				<g>
					<g>
						<path style="fill:#00ACEC;" d="M93.754,245.811c0.061-7.319,3.81-33.157,29.456-51.481c3.459-2.472,8.798-1.138,11.269,2.32
							c2.471,3.458,1.671,8.266-1.788,10.736c-19.727,14.096-19.905,33.072-19.952,38.552
							C112.705,250.168,93.718,250.063,93.754,245.811z"/>
					</g>
				</g>
				<g>
					<path style="fill:#FF7347;" d="M154.822,231.814c6.145,0.002,11.123,4.986,11.12,11.129c-0.002,6.144-4.986,11.123-11.13,11.12
						c-6.144-0.002-11.124-4.984-11.121-11.129C143.694,236.791,148.678,231.813,154.822,231.814z"/>
					<g>
						<path style="fill:#FF7347;" d="M156.01,240.558c-0.689,0-1.377-0.276-1.882-0.822c-0.964-1.039-0.904-2.663,0.136-3.628
							c0.046-0.044,4.692-4.355,7.482-7.143c1.003-1.001,2.628-1.001,3.631,0.002c1.002,1.003,1.001,2.629-0.002,3.631
							c-2.858,2.855-7.426,7.095-7.62,7.274C157.262,240.331,156.636,240.558,156.01,240.558z"/>
					</g>
					<g>
						<path style="fill:#FF7347;" d="M151.429,237.083c-0.689,0-1.377-0.275-1.882-0.821c-0.964-1.04-0.904-2.664,0.136-3.627
							c0.046-0.044,4.692-4.356,7.482-7.143c1.003-1.003,2.628-1.001,3.631,0.001c1.002,1.003,1.002,2.629-0.002,3.63
							c-2.858,2.855-7.426,7.096-7.62,7.275C152.681,236.857,152.055,237.083,151.429,237.083z"/>
					</g>
					<g>
						<path style="fill:#FF7347;" d="M159.215,245.371c-0.689,0-1.376-0.276-1.882-0.821c-0.964-1.039-0.903-2.664,0.136-3.628
							c0.046-0.043,4.691-4.355,7.482-7.143c1.003-1.002,2.628-1.001,3.631,0.001c1.002,1.003,1.001,2.629-0.002,3.631
							c-2.858,2.856-7.426,7.096-7.619,7.275C160.466,245.145,159.84,245.371,159.215,245.371z"/>
					</g>
					<g>
						<path style="fill:#FF7347;" d="M161.158,251.354c-0.689,0-1.377-0.275-1.883-0.821c-0.964-1.039-0.903-2.664,0.136-3.627
							c0.046-0.044,4.692-4.355,7.482-7.143c1.003-1.002,2.628-1.001,3.631,0.002c1.002,1.003,1.001,2.628-0.001,3.63
							c-2.858,2.855-7.426,7.096-7.62,7.274C162.409,251.128,161.783,251.354,161.158,251.354z"/>
					</g>
					<g>
						<path style="fill:#FF7347;" d="M145.986,240.916c-1.271,0-2.371-0.943-2.541-2.23c-0.031-0.192-0.573-3.244-4.431-5.613
							c-1.208-0.742-1.587-2.323-0.845-3.531c0.743-1.208,2.323-1.586,3.532-0.844c6.109,3.752,6.811,9.122,6.838,9.349
							c0.167,1.408-0.839,2.686-2.247,2.852C146.189,240.91,146.087,240.916,145.986,240.916z"/>
					</g>
				</g>
				<path style="fill:#002B43;" d="M110.408,150.794c0,0,5.944,5.217,6.852-0.411c0,0,1.69-11.899-9.166-21.893
					C108.094,128.489,102.61,142.608,110.408,150.794z"/>
				<path style="fill:#002B43;" d="M154.912,125.931c1.172,9.591-4.568-12.624-17.536,8.76c-8.017,13.222-21.676,9.865-28.591,3.116
					c-6.915-6.748-8.591-14.206-3.638-21.218C114.781,102.952,151.836,100.793,154.912,125.931z"/>
				<path style="fill:#002B43;" d="M151.267,132.359c0.083-4.264-3.725-7.524-6.726-9.534l-1.873,3.084c0,0,2.448,3.934,5.345,5.883
					C149.279,132.645,151.267,132.359,151.267,132.359z"/>
			</g>
			<g>
				<path style="fill:#003D60;" d="M215.78,263.94c0,0-18.628,9.263-18.628,70.52l24.075,15.642l15.481-49.207l30.892,58.668
					l19.8,1.492l-25.024-97.115H215.78z"/>
				<path style="fill:#FFFFFF;" d="M263.741,264.205l-4.011-54.172c-1.493-13.782-13.879-23.742-27.662-22.248
					c-13.781,1.495-23.742,13.88-22.247,27.661l3.675,49.652c0,0,1.58,4.22,27.594,4.22
					C261.691,269.317,263.741,264.205,263.741,264.205z"/>
				<g>
					<path style="fill:#FF926B;" d="M258.718,255.849c-12.441,0-42.856-6.865-49.144-8.316c-4.141-0.955-6.724-5.088-5.767-9.229
						c0.954-4.142,5.087-6.724,9.228-5.769c15.599,3.599,40.313,8.43,46.407,7.901c3.088-0.267,6.98-1.607,7.98-6.473
						c1.564-7.601-5.001-20.201-23.109-29.906c-3.747-2.007-5.155-6.672-3.148-10.419c2.008-3.746,6.672-5.156,10.419-3.148
						c11.218,6.013,19.992,13.645,25.376,22.074c5.16,8.08,7.127,16.78,5.539,24.5c-2.172,10.567-10.499,17.736-21.729,18.708
						C260.157,255.823,259.471,255.849,258.718,255.849z"/>
				</g>
				<g>
					<path style="fill:#FFFFFF;" d="M263.741,222.826c-3.765-7.064-5.623-5.225-15.683-10.615
						c-3.747-2.008-9.836-13.893-7.828-17.64c2.008-3.746-8.882-10.39,11.353-4.081c14.727,4.592,23.244,14.954,28.466,24.752
						c2,3.751,6.605,5.802-4.492,10.757C264.458,230.954,265.126,225.425,263.741,222.826z"/>
				</g>
				<g>
					<path style="fill:#FFA077;" d="M207.243,262.402c-3.702,0-7.04-0.843-9.975-2.527c-4.504-2.585-7.653-6.975-9.107-12.696
						c-2.304-9.069-0.247-21.073,5.503-32.108c6.284-12.061,15.853-20.493,26.252-23.135c4.12-1.047,8.308,1.444,9.354,5.564
						c1.047,4.12-1.444,8.308-5.563,9.355c-13.934,3.54-23.303,25.998-20.627,36.534c0.567,2.232,1.208,4.764,7.699,3.114
						c4.478-1.137,9.375-4.043,14.112-6.854c8.278-4.912,16.837-9.99,25.632-6.868c4.005,1.422,6.1,5.822,4.677,9.828
						c-1.422,4.006-5.821,6.1-9.827,4.678c-1.998-0.708-8.652,3.241-12.628,5.601c-5.412,3.211-11.545,6.85-18.175,8.534
						C211.991,262.076,209.546,262.402,207.243,262.402z"/>
				</g>
				<g>
					<path style="fill:#FFFFFF;" d="M203.606,228.477c-1.117,0-11.299-2.12-12.374-2.636c-3.831-1.84-2.774-5.054-0.934-8.885
						c5.829-12.135,22.308-23.76,33.59-27.38c4.048-1.299,3.952,3.422,5.251,7.469c1.298,4.047,1.396,12.577-2.652,13.877
						c-7.111,2.281-13.606,5.653-17.529,13.819C207.633,227.498,206.474,228.477,203.606,228.477z"/>
				</g>
				<g>
					<g>
						<path style="fill:#FFA077;" d="M235.268,203.837c4.094-1.143,6.486-5.388,5.344-9.482c-1.619-5.796-0.308-15.308,0.333-18.483
							c0.84-4.163-1.849-8.224-6.01-9.07c-4.163-0.846-8.222,1.834-9.073,5.995c-0.314,1.534-2.983,15.292-0.077,25.696
							C226.93,202.587,231.173,204.979,235.268,203.837z"/>
					</g>
					<g>
						<path style="fill:#FF865E;" d="M224.523,190.208c-0.442-8.297,1.105-16.266,1.34-17.411c0.852-4.161,4.911-6.841,9.073-5.995
							c4.161,0.846,6.85,4.907,6.01,9.07c-0.375,1.856-0.979,5.877-1.093,10.055L224.523,190.208z"/>
					</g>
					<g>
						<path style="fill:#FFA077;" d="M249.54,156.932c0.067,2.918,2.487,5.228,5.405,5.159l0,0c2.918-0.067,5.227-2.489,5.159-5.405
							l-0.031-1.407c-0.068-2.917-2.489-5.227-5.406-5.159l0,0c-2.918,0.069-5.229,2.488-5.158,5.406L249.54,156.932z"/>
						<path style="fill:#FFA077;" d="M205.215,157.965c0.067,2.918,2.487,5.228,5.404,5.16l0,0c2.918-0.068,5.229-2.489,5.16-5.406
							l-0.032-1.407c-0.069-2.917-2.489-5.226-5.407-5.158l0,0c-2.916,0.068-5.227,2.487-5.159,5.405L205.215,157.965z"/>
						<path style="fill:#FFA077;" d="M235.839,185.257l-5.168,0.122c-10.146,0.235-18.549-7.151-18.768-16.501l-0.416-17.845
							l-0.003-0.002l-0.174-7.549c-0.216-9.348,7.831-17.12,17.977-17.356l5.168-0.121c3.004-0.07,5.855,0.526,8.384,1.646
							c6.023,2.66,10.232,8.275,10.385,14.855l0.592,25.396C254.031,177.249,245.985,185.021,235.839,185.257z"/>
						<g>
							
								<path style="fill:none;stroke:#FF5D56;stroke-width:0.9189;stroke-linecap:round;stroke-linejoin:round;stroke-miterlimit:10;" d="
								M232.358,151.634l0.878,10.723c0,0,1.206,4.798-3.102,4.896"/>
							<path style="fill:#892923;" d="M239.35,158.167c0.031,1.331,0.835,2.391,1.798,2.37c0.962-0.023,1.715-1.119,1.684-2.451
								c-0.031-1.331-0.836-2.392-1.797-2.369C240.074,155.739,239.318,156.836,239.35,158.167z"/>
							<path style="fill:#892923;" d="M222.841,158.528c0.032,1.331,0.836,2.391,1.799,2.369c0.961-0.021,1.716-1.119,1.684-2.45
								c-0.031-1.33-0.836-2.391-1.796-2.369C223.565,156.101,222.81,157.198,222.841,158.528z"/>
							
								<path style="fill:none;stroke:#CB2C1D;stroke-width:1.3784;stroke-linecap:round;stroke-linejoin:round;stroke-miterlimit:10;" d="
								M240.036,144.421c0,0,3.85-0.7,5.747,2.231"/>
							
								<path style="fill:none;stroke:#CB2C1D;stroke-width:1.3784;stroke-linecap:round;stroke-linejoin:round;stroke-miterlimit:10;" d="
								M226.864,144.168c0,0-3.879-0.521-5.638,2.496"/>
							
								<path style="fill:none;stroke:#FF5D56;stroke-width:0.9189;stroke-linecap:round;stroke-linejoin:round;stroke-miterlimit:10;" d="
								M228.835,170.109c1.958,2.191,5.483,2.235,7.872,0.099"/>
						</g>
					</g>
				</g>
				<g>
					<path style="fill:#FFA077;" d="M259.688,241.135c-0.001,3.015-1.221,6.02-3.623,8.214c-4.535,4.143-11.573,3.824-15.717-0.713
						c-4.143-4.537-3.826-11.573,0.712-15.717c2.953-2.696,10.868-1.951,17.179,0.149
						C261.621,234.195,259.688,238.456,259.688,241.135z"/>
					<g>
						<path style="fill:#FFA077;" d="M263.395,243.384c-0.125,0-0.251-0.009-0.378-0.028c-3.997-0.588-10.126-1.722-10.385-1.77
							c-1.395-0.258-2.315-1.598-2.057-2.992c0.257-1.394,1.596-2.315,2.992-2.057c0.061,0.012,6.294,1.165,10.197,1.739
							c1.402,0.206,2.372,1.511,2.166,2.913C265.743,242.466,264.647,243.384,263.395,243.384z"/>
					</g>
					<g>
						<path style="fill:#FFA077;" d="M263.961,239.938c-0.215,0-0.433-0.027-0.649-0.084c-3.91-1.018-9.88-2.809-10.133-2.885
							c-1.357-0.408-2.127-1.839-1.719-3.197c0.408-1.357,1.836-2.127,3.197-1.72c0.061,0.019,6.132,1.84,9.947,2.834
							c1.373,0.357,2.196,1.759,1.839,3.131C266.143,239.171,265.101,239.938,263.961,239.938z"/>
					</g>
					<g>
						<path style="fill:#FFA077;" d="M261.938,249.01c-0.126,0-0.25-0.009-0.378-0.028c-3.997-0.589-10.126-1.725-10.385-1.772
							c-1.395-0.259-2.314-1.599-2.057-2.992c0.259-1.394,1.596-2.317,2.993-2.056c0.062,0.011,6.295,1.166,10.197,1.742
							c1.403,0.207,2.373,1.512,2.165,2.915C264.286,248.092,263.189,249.01,261.938,249.01z"/>
					</g>
					<g>
						<path style="fill:#FFA077;" d="M258.939,254.141c-0.039,0-0.078-0.001-0.118-0.002c-4.249-0.193-10.663-1.822-10.934-1.892
							c-1.374-0.351-2.203-1.749-1.852-3.123c0.351-1.374,1.747-2.204,3.123-1.852c0.061,0.015,6.176,1.568,9.895,1.736
							c1.416,0.064,2.513,1.265,2.449,2.681C261.44,253.066,260.305,254.141,258.939,254.141z"/>
					</g>
				</g>
				<g>
					<path style="fill:#FF926B;" d="M199.792,236.689c-3.108,5.301-1.33,12.117,3.97,15.225c5.299,3.107,7.534,3.162,13.413-3.971
						c4.267-5.178,5.197-6.169,10.794-9.948c1.052-0.712,0.497-0.598-0.242-1.432c-2.092-2.362-9.09-4.251-13.402-4.537
						C206.204,231.489,202.899,231.39,199.792,236.689z"/>
					<g>
						<path style="fill:#FF926B;" d="M194.477,246.271c-1.141,0-2.182-0.765-2.483-1.919c-0.357-1.372,0.465-2.774,1.836-3.132
							c3.817-0.995,9.887-2.82,9.947-2.838c1.358-0.409,2.789,0.361,3.199,1.719c0.408,1.357-0.362,2.789-1.72,3.198
							c-0.251,0.076-6.221,1.87-10.13,2.889C194.909,246.245,194.691,246.271,194.477,246.271z"/>
					</g>
					<g>
						<path style="fill:#FF926B;" d="M193.799,240.563c-1.141,0-2.182-0.765-2.483-1.919c-0.357-1.372,0.464-2.774,1.836-3.132
							c3.816-0.995,9.887-2.82,9.947-2.838c1.357-0.409,2.789,0.361,3.199,1.719c0.408,1.358-0.361,2.79-1.719,3.198
							c-0.253,0.076-6.222,1.869-10.131,2.889C194.231,240.536,194.013,240.563,193.799,240.563z"/>
					</g>
					<g>
						<path style="fill:#FF926B;" d="M197.005,251.473c-1.14,0-2.181-0.766-2.482-1.921c-0.358-1.372,0.464-2.774,1.836-3.132
							c3.817-0.996,9.887-2.82,9.948-2.839c1.358-0.409,2.79,0.361,3.198,1.719c0.409,1.357-0.361,2.79-1.719,3.199
							c-0.252,0.075-6.222,1.87-10.131,2.89C197.437,251.445,197.22,251.473,197.005,251.473z"/>
					</g>
					<g>
						<path style="fill:#FF926B;" d="M201.184,256.175c-1.141,0-2.181-0.765-2.483-1.92c-0.358-1.37,0.464-2.774,1.836-3.132
							c3.818-0.995,9.888-2.819,9.948-2.837c1.359-0.409,2.79,0.362,3.198,1.72c0.408,1.357-0.361,2.79-1.719,3.197
							c-0.253,0.077-6.221,1.869-10.131,2.888C201.616,256.148,201.398,256.175,201.184,256.175z"/>
					</g>
				</g>
				<g>
					<path style="fill:#FF926B;" d="M207.567,238.511c-0.478,0-0.96-0.131-1.391-0.406c-0.192-0.122-4.727-3.085-5.456-10.217
						c-0.144-1.411,0.882-2.671,2.293-2.815c1.408-0.145,2.67,0.882,2.814,2.293c0.466,4.552,3.031,6.355,3.14,6.43
						c1.196,0.762,1.532,2.337,0.77,3.534C209.25,238.095,208.417,238.511,207.567,238.511z"/>
				</g>
				<g>
					<path style="fill:#FFA077;" d="M250.624,237.033c-1.309,0-2.426-0.995-2.554-2.324c-0.133-1.399,0.883-2.644,2.278-2.796
						c0.192-0.026,3.257-0.499,5.713-4.301c0.769-1.192,2.358-1.533,3.549-0.764c1.191,0.77,1.533,2.358,0.764,3.55
						c-3.89,6.022-9.274,6.601-9.502,6.623C250.788,237.029,250.705,237.033,250.624,237.033z"/>
				</g>
				<path style="fill:#FF4444;" d="M251.716,121.392c-2.686-3.931-6.563-6.36-10.24-6.821c-1.393-5.268-7.739-8.296-14.343-6.784
					c-6.706,1.537-11.137,7.176-9.908,12.603c-0.419,0.085-0.84,0.178-1.261,0.289c-8.454,2.224-14.003,8.976-12.397,15.081
					c1.606,6.105,9.761,9.251,18.213,7.027c4.306-1.133,7.855-3.441,10.093-6.24c0.951,0.337-0.549,3.797,0.184,5.048
					c0.277,0.472,0.677,0.825,1.137,1.044c0.759,0.361,1.678,0.352,2.458-0.105c2.12-1.242,3.792-2.609,5.103-4.025
					c3.508,1.819,7.318,1.967,10.178,0.012C255.635,135.307,255.985,127.639,251.716,121.392z"/>
				<path style="fill:none;stroke:#FFFFFF;stroke-width:1.5088;stroke-miterlimit:10;" d="M230.196,157.688
					c0,5.752-4.663,10.415-10.416,10.415c-5.752,0-10.416-4.663-10.416-10.415s4.664-10.415,10.416-10.415
					c5.569,0,10.117,4.369,10.401,9.866C230.191,157.32,230.196,157.503,230.196,157.688z"/>
				<path style="fill:none;stroke:#FFFFFF;stroke-width:1.5088;stroke-miterlimit:10;" d="M256.179,157.688
					c0,5.752-4.664,10.415-10.416,10.415c-5.751,0-10.415-4.663-10.415-10.415s4.663-10.415,10.415-10.415
					C251.515,147.273,256.179,151.935,256.179,157.688z"/>
				
					<line style="fill:none;stroke:#FFFFFF;stroke-width:1.5088;stroke-miterlimit:10;" x1="235.348" y1="156.52" x2="230.196" y2="156.52"/>
			</g>
			<g>
				<g>
					<path style="fill:#00B789;" d="M329.538,302.209c0,6.725-5.452,12.176-12.178,12.176l0,0c-6.725,0-12.178-5.451-12.178-12.176
						v-21.815c0-6.725,5.453-12.176,12.178-12.176l0,0c6.725,0,12.178,5.451,12.178,12.176V302.209z"/>
					
						<path style="fill:none;stroke:#008C86;stroke-width:0.8965;stroke-linecap:round;stroke-linejoin:round;stroke-miterlimit:10;" d="
						M319.585,268.515c5.245,8.519,3.527,39.969,0.563,45.433"/>
					
						<path style="fill:none;stroke:#008C86;stroke-width:0.8965;stroke-linecap:round;stroke-linejoin:round;stroke-miterlimit:10;" d="
						M315.356,268.515c-5.245,8.519-3.528,39.969-0.563,45.433"/>
					
						<line style="fill:none;stroke:#008C86;stroke-width:0.8965;stroke-linecap:round;stroke-linejoin:round;stroke-miterlimit:10;" x1="305.183" y1="298.324" x2="301.822" y2="298.772"/>
					
						<line style="fill:none;stroke:#008C86;stroke-width:0.8965;stroke-linecap:round;stroke-linejoin:round;stroke-miterlimit:10;" x1="305.183" y1="289.957" x2="301.373" y2="289.957"/>
					
						<line style="fill:none;stroke:#008C86;stroke-width:0.8965;stroke-linecap:round;stroke-linejoin:round;stroke-miterlimit:10;" x1="305.183" y1="282.073" x2="301.822" y2="280.992"/>
					
						<line style="fill:none;stroke:#008C86;stroke-width:0.8965;stroke-linecap:round;stroke-linejoin:round;stroke-miterlimit:10;" x1="329.351" y1="298.324" x2="333.049" y2="298.772"/>
					
						<line style="fill:none;stroke:#008C86;stroke-width:0.8965;stroke-linecap:round;stroke-linejoin:round;stroke-miterlimit:10;" x1="329.688" y1="289.957" x2="333.496" y2="289.957"/>
					
						<line style="fill:none;stroke:#008C86;stroke-width:0.8965;stroke-linecap:round;stroke-linejoin:round;stroke-miterlimit:10;" x1="329.238" y1="282.393" x2="332.601" y2="280.992"/>
					
						<line style="fill:none;stroke:#008C86;stroke-width:0.8965;stroke-linecap:round;stroke-linejoin:round;stroke-miterlimit:10;" x1="328.177" y1="274.803" x2="331.368" y2="272.551"/>
					
						<line style="fill:none;stroke:#008C86;stroke-width:0.8965;stroke-linecap:round;stroke-linejoin:round;stroke-miterlimit:10;" x1="323.763" y1="270.036" x2="326.057" y2="266.873"/>
					
						<line style="fill:none;stroke:#008C86;stroke-width:0.8965;stroke-linecap:round;stroke-linejoin:round;stroke-miterlimit:10;" x1="306.563" y1="274.803" x2="303.372" y2="272.551"/>
					
						<line style="fill:none;stroke:#008C86;stroke-width:0.8965;stroke-linecap:round;stroke-linejoin:round;stroke-miterlimit:10;" x1="310.977" y1="270.036" x2="308.683" y2="266.873"/>
					
						<line style="fill:none;stroke:#008C86;stroke-width:0.8965;stroke-linecap:round;stroke-linejoin:round;stroke-miterlimit:10;" x1="317.36" y1="268.218" x2="317.36" y2="264.408"/>
					<path style="fill:#FF9561;" d="M325.503,324.724c0,1.239-1.003,2.242-2.241,2.242h-12.398c-1.24,0-2.243-1.003-2.243-2.242
						l-2.987-16.809c0-1.238,1.002-2.24,2.24-2.24h18.303c1.238,0,2.24,1.002,2.24,2.24L325.503,324.724z"/>
					<path style="fill:#FF7E62;" d="M334.693,307.886c0,1.238-1.004,2.24-2.241,2.24H302.57c-1.238,0-2.241-1.002-2.241-2.24v-2.167
						c0-1.236,1.003-2.24,2.241-2.24h29.882c1.237,0,2.241,1.004,2.241,2.24V307.886z"/>
				</g>
				<g>
					<path style="fill:#00A984;" d="M209.469,297.106c0,0,12.289,5.377,11.18,2.068
						C220.286,298.091,215.704,294.914,209.469,297.106z"/>
					<path style="fill:#00A984;" d="M198.934,316.876c0,0,11.736,2.763,12.725-2.881c0.288-1.642-2.836-2.993-6.201-2.452
						C205.458,311.543,200.199,312.811,198.934,316.876z"/>
					<path style="fill:#00B789;" d="M197.15,316.067c0,0-12.581-5.569-7.739-10.302c2.41-2.357,8.386,0.514,8.861,10.948
						L197.15,316.067z"/>
					
						<path style="fill:none;stroke:#008C86;stroke-width:0.8965;stroke-linecap:round;stroke-linejoin:round;stroke-miterlimit:10;" d="
						M197.938,321.684c0,0,1.344-22.412,14.343-25.998"/>
					<path style="fill:#00A984;" d="M208.36,294.827c-1.271-4.595,0.718-9.974,4.818-9.189c2.884,0.554,3.16,4.207-3.764,11.132
						C209.317,296.866,208.594,295.674,208.36,294.827z"/>
				</g>
				<g>
					<path style="fill:#00A984;" d="M189.351,275.506c0,0-12.87,3.778-11.352,0.639
						C178.497,275.114,183.444,272.544,189.351,275.506z"/>
					<path style="fill:#00A984;" d="M197.297,296.452c0,0-11.991,1.254-12.258-4.469c-0.077-1.666,3.194-2.611,6.462-1.646
						C191.501,290.337,196.557,292.26,197.297,296.452z"/>
					<path style="fill:#00B789;" d="M199.17,295.875c0,0,13.184-3.931,8.981-9.237c-2.092-2.644-8.384-0.553-10.176,9.737
						L199.17,295.875z"/>
					
						<path style="fill:none;stroke:#008C86;stroke-width:0.8965;stroke-linecap:round;stroke-linejoin:round;stroke-miterlimit:10;" d="
						M198.272,316.714c0,0,3.108-34.641-11.532-42.972"/>
					<path style="fill:#FF4D4D;" d="M188.544,274.787c-1.071,2.367-14.157,0.041-13.457-4.038c0.265-1.548,1.84-2.047,4.262-1.86
						c0,0-5.029-2.511-2.495-5.299c1.246-1.37,4.589-0.871,5.508,3.035c0,0-0.621-3.152,2.004-3.5
						C186.831,262.797,191.146,269.031,188.544,274.787z"/>
					<path style="fill:#00A984;" d="M190.581,273.717c2.711-3.92,2.603-9.653-1.528-10.262c-2.906-0.429-4.368,2.932-0.107,11.749
						C189.006,275.327,190.081,274.44,190.581,273.717z"/>
				</g>
				<path style="fill:#F5EEE9;" d="M384.56,409.189c0,1.238-1.004,2.24-2.241,2.24H126.526c-1.238,0-2.241-1.002-2.241-2.24V292.832
					c0-1.237,1.003-2.241,2.241-2.241l255.792,89.463c1.237,0,2.241,1.002,2.241,2.241V409.189z"/>
				<path style="fill:#F8F8EF;" d="M124.284,409.189c0,1.238,1.003,2.24,2.242,2.24h255.792c1.236,0,2.241-1.002,2.241-2.24V292.832
					c0-1.237-1.005-2.241-2.241-2.241l-255.792,89.463c-1.238,0-2.242,1.002-2.242,2.241V409.189z"/>
			</g>
			<g>
				<path style="fill:#FFA077;" d="M449.873,116.655c-3.118-5.295-9.938-7.06-15.231-3.943c-5.296,3.119-7.434,10.309-4.315,15.605
					c3.118,5.293,10.311,6.687,15.605,3.569C451.225,128.77,452.99,121.95,449.873,116.655z"/>
				<g>
					<path style="fill:#FFA077;" d="M431.47,126.698c-1.272,0-2.376-0.946-2.542-2.239c-0.082-0.58-0.96-5.549-6.965-6.542
						c-1.398-0.231-2.345-1.553-2.113-2.952c0.232-1.399,1.55-2.347,2.951-2.114c7.981,1.319,10.829,7.752,11.222,10.969
						c0.17,1.407-0.833,2.687-2.239,2.858C431.678,126.692,431.574,126.698,431.47,126.698z"/>
				</g>
				<g>
					<path style="fill:#FFA077;" d="M434.627,120.357c-1.307,0-2.424-0.994-2.552-2.323c-0.013-0.133-1.311-13.362-4.727-20.354
						c-0.622-1.274-0.095-2.811,1.18-3.433c1.272-0.624,2.811-0.095,3.434,1.18c3.826,7.833,5.169,21.54,5.225,22.12
						c0.135,1.411-0.899,2.665-2.311,2.799C434.792,120.354,434.709,120.357,434.627,120.357z"/>
				</g>
				<g>
					<path style="fill:#FFA077;" d="M439.519,116.972c-1.364,0-2.501-1.076-2.562-2.453c-0.006-0.127-0.589-12.719-2.954-20.272
						c-0.423-1.353,0.33-2.793,1.684-3.217c1.352-0.422,2.793,0.33,3.216,1.683c2.567,8.195,3.16,21.036,3.185,21.578
						c0.064,1.416-1.034,2.615-2.45,2.678C439.597,116.971,439.558,116.972,439.519,116.972z"/>
				</g>
				<g>
					<path style="fill:#FFA077;" d="M444.778,120.042c-0.044,0-0.089-0.002-0.133-0.004c-1.417-0.073-2.505-1.28-2.433-2.696
						c0.006-0.127,0.63-12.716-1.001-20.461c-0.292-1.387,0.596-2.749,1.984-3.042c1.386-0.292,2.748,0.595,3.041,1.983
						c1.77,8.403,1.131,21.241,1.104,21.783C447.269,118.978,446.136,120.042,444.778,120.042z"/>
				</g>
				<g>
					<path style="fill:#FFA077;" d="M448.9,125.29c-0.281,0-0.566-0.046-0.848-0.145c-1.337-0.468-2.042-1.931-1.576-3.268
						c0.029-0.085,2.322-6.815,1.794-14.473c-0.099-1.415,0.97-2.641,2.385-2.738c1.411-0.093,2.64,0.97,2.737,2.385
						c0.605,8.758-1.958,16.206-2.067,16.519C450.954,124.628,449.962,125.29,448.9,125.29z"/>
				</g>
			</g>
			<g>
				<path style="fill:#FF7D54;" d="M395.473,179.576c-1.514,5.221-7.778,7.468-12.816,5.428c-5.038-2.041-7.467-7.778-5.427-12.817
					c2.04-5.037,3.77-8.614,8.806-6.573C391.073,167.654,397.389,172.97,395.473,179.576z"/>
				<g>
					<path style="fill:#FF7C57;" d="M373.413,186.004c-0.579,0-1.161-0.195-1.642-0.595c-1.09-0.907-1.237-2.525-0.329-3.615
						c3.384-4.066,4.608-7.096,4.621-7.126c0.521-1.314,2.008-1.964,3.324-1.448c1.316,0.516,1.97,1.994,1.459,3.312
						c-0.059,0.152-1.487,3.777-5.459,8.547C374.88,185.689,374.149,186.004,373.413,186.004z"/>
				</g>
				<g>
					<path style="fill:#FF7C57;" d="M379.389,199.661c-0.256,0-0.518-0.038-0.775-0.121c-1.352-0.429-2.101-1.872-1.672-3.223
						c2.076-6.55,1.979-15.628,1.977-15.719c-0.02-1.417,1.113-2.583,2.531-2.603c0.012,0,0.024,0,0.036,0
						c1.401,0,2.547,1.124,2.567,2.53c0.005,0.404,0.114,9.99-2.217,17.344C381.49,198.962,380.478,199.661,379.389,199.661z"/>
				</g>
				<g>
					<path style="fill:#FF7C57;" d="M386.239,201.967c-0.133,0-0.268-0.01-0.402-0.031c-1.4-0.221-2.357-1.535-2.138-2.936
						c1.079-6.857-0.029-15.696-0.041-15.784c-0.181-1.407,0.814-2.693,2.219-2.873c1.406-0.177,2.694,0.813,2.874,2.22
						c0.05,0.391,1.213,9.663,0.021,17.235C388.572,201.064,387.48,201.967,386.239,201.967z"/>
				</g>
				<g>
					<path style="fill:#FF7C57;" d="M392.483,198.765c-0.053,0-0.105-0.001-0.158-0.005c-1.414-0.085-2.493-1.302-2.408-2.717
						c0.415-6.875-1.968-15.761-1.991-15.851c-0.371-1.368,0.439-2.778,1.806-3.149c1.37-0.371,2.779,0.438,3.15,1.806
						c0.108,0.396,2.626,9.797,2.161,17.503C394.961,197.714,393.83,198.765,392.483,198.765z"/>
				</g>
				<g>
					<path style="fill:#FF7C57;" d="M397.384,188.915c-1.326,0-2.451-1.021-2.557-2.366c-0.496-6.323-4.665-10.88-4.708-10.925
						c-0.961-1.037-0.906-2.66,0.126-3.625c1.033-0.967,2.649-0.919,3.619,0.112c0.222,0.235,5.44,5.864,6.082,14.037
						c0.111,1.413-0.945,2.649-2.358,2.76C397.52,188.913,397.451,188.915,397.384,188.915z"/>
				</g>
			</g>
			<g>
				<g>
					<path style="fill:#FF7C57;" d="M195.631,207.622c-2.557-1.599-2.318-5.653-5.045-7.425
						c-4.54-2.948,12.551-14.329,18.596-15.438c6.043-1.108,2.181,5.379,3.29,11.423c0.721,3.933-4.107,10.249-9.232,14.486
						C200.49,212.941,197.903,209.044,195.631,207.622z"/>
					<g>
						<path style="fill:#FF7C57;" d="M190.203,217.578c-0.588,0-1.18-0.201-1.663-0.612c-1.08-0.918-1.21-2.539-0.292-3.619
							c2.623-3.083,10.199-11.269,10.52-11.616c0.963-1.04,2.589-1.103,3.628-0.14c1.04,0.963,1.103,2.587,0.14,3.628
							c-0.078,0.084-7.824,8.454-10.377,11.455C191.651,217.271,190.929,217.578,190.203,217.578z"/>
					</g>
					<g>
						<path style="fill:#FF7C57;" d="M196.002,219.712c-0.682,0-1.362-0.269-1.867-0.804c-0.974-1.031-0.928-2.655,0.103-3.629
							c2.228-2.106,6.478-8.259,7.927-10.451c0.781-1.183,2.374-1.507,3.557-0.727c1.183,0.782,1.508,2.374,0.726,3.557
							c-0.226,0.342-5.57,8.409-8.684,11.352C197.269,219.48,196.634,219.712,196.002,219.712z"/>
					</g>
					<g>
						<path style="fill:#FF7C57;" d="M187.039,212.211c-0.588,0-1.18-0.202-1.663-0.612c-1.08-0.919-1.21-2.54-0.29-3.62
							c2.615-3.072,8.768-9.833,9.028-10.119c0.955-1.048,2.578-1.125,3.627-0.17c1.048,0.954,1.125,2.578,0.17,3.627
							c-0.063,0.069-6.355,6.984-8.916,9.992C188.488,211.904,187.766,212.211,187.039,212.211z"/>
					</g>
					<g>
						<path style="fill:#FF7C57;" d="M187.04,203.336c-0.676,0-1.35-0.265-1.855-0.791c-0.98-1.024-0.944-2.65,0.079-3.63
							c5.89-5.639,9.968-5.957,10.726-5.964l0.044,5.134c0,0,0.031,0.003,0.089-0.003c-0.028,0.003-2.849,0.272-7.307,4.541
							C188.318,203.101,187.68,203.336,187.04,203.336z"/>
					</g>
				</g>
				<g>
					<path style="fill:#FF7C57;" d="M206.696,215.374c-0.965,0-1.889-0.546-2.325-1.478c-3.044-6.489-0.681-11.363-0.578-11.567
						c0.633-1.269,2.175-1.783,3.444-1.149c1.258,0.629,1.774,2.15,1.164,3.413c-0.08,0.177-1.304,3.026,0.618,7.123
						c0.603,1.284,0.051,2.813-1.234,3.415C207.433,215.295,207.061,215.374,206.696,215.374z"/>
				</g>
			</g>
			<path style="fill:#FFB646;" d="M364.249,105.052c0.206-3.441-0.928-6.745-3.44-9.039c-4.852-4.432-12.991-3.42-18.18,2.26
				c-1.318,1.444-2.318,3.051-3,4.718c-1.989-0.314-3.745,0.085-4.843,1.286c-2.323,2.543-0.802,7.717,3.399,11.554
				c0.699,0.639,1.388,1.199,2.064,1.694c-1.643,1.347-2.873,3.745-2.873,7.926c0,0,6.634,9.119,10.324-4.916
				c5.866,0.452,10.263-3.765,12.499-6.213c1.354-1.482,2.371-3.138,3.052-4.852c0.926,4.365,3.807,10.143,12.684,8.418
				c0,0-0.874,13.553,6.813,13.553C382.748,131.44,395.923,105.796,364.249,105.052z"/>
		</g>
	</g>
</g>
<!-- <g id="DESIGNED_BY_FREEPIK">
	<g>
		<g id="XMLID_319_">
			<g id="XMLID_338_">
				<path id="XMLID_346_" style="fill:#1D262D;" d="M260.103,465.465c-0.432,0.443-0.803,0.932-1.107,1.453l-0.465-0.241
					c-0.068-0.297-0.35-0.502-0.66-0.466c-0.33,0.039-0.566,0.339-0.529,0.67c0.039,0.331,0.34,0.567,0.67,0.528
					c0.066-0.007,0.127-0.025,0.184-0.052l0.451,0.234c-0.25,0.554-0.432,1.139-0.539,1.743l0.748,0.132
					c0.229-1.306,0.85-2.507,1.791-3.473L260.103,465.465z"/>
				<path id="XMLID_345_" style="fill:#1D262D;" d="M265.592,463.163c-0.172,0-0.342,0.006-0.51,0.017l-0.074-0.626
					c0.188-0.149,0.297-0.389,0.266-0.645c-0.045-0.393-0.402-0.674-0.795-0.628c-0.393,0.046-0.674,0.402-0.627,0.796
					c0.029,0.254,0.189,0.461,0.404,0.564l0.072,0.624c-0.713,0.116-1.402,0.332-2.059,0.646l0.326,0.685
					c0.936-0.447,1.941-0.674,2.996-0.674c0.496,0,0.992,0.053,1.475,0.158l0.16-0.741
					C266.691,463.222,266.143,463.163,265.592,463.163z"/>
				<path id="XMLID_344_" style="fill:#1D262D;" d="M272.193,465.71c0.332-0.04,0.566-0.341,0.525-0.672
					c-0.039-0.331-0.34-0.566-0.672-0.525c-0.309,0.038-0.535,0.304-0.529,0.608l-0.416,0.363c-0.418-0.43-0.891-0.813-1.408-1.14
					l-0.404,0.642c1.135,0.715,2.021,1.727,2.564,2.925l0.69-0.313c-0.25-0.554-0.566-1.071-0.941-1.545l0.402-0.351
					C272.064,465.715,272.129,465.719,272.193,465.71z"/>
				<path id="XMLID_343_" style="fill:#1D262D;" d="M265.045,473.371c-0.387,0.023-0.775,0.035-1.158,0.035
					c-0.879,0-1.732-0.061-2.478-0.18c-0.391-0.062-0.846-0.154-1.27-0.292c1.047,1.861,3.068,3.125,5.389,3.125
					c2.855,0,5.262-1.916,5.949-4.503c-0.682,0.449-1.506,0.825-2.459,1.122C267.838,473.047,266.463,473.286,265.045,473.371z"/>
				<path id="XMLID_339_" style="fill:#1D262D;" d="M265.592,464.68c-3.352,0-6.08,2.666-6.08,5.943
					c0,0.425,0.047,0.849,0.137,1.261c0.674,0.483,2.707,0.891,5.348,0.731c2.881-0.174,5.297-0.958,6.672-2.159
					c-0.004-0.194-0.02-0.39-0.045-0.581C271.244,466.913,268.65,464.68,265.592,464.68z M263.432,471.194
					c-1.02,0-1.85-0.83-1.85-1.85c0-1.021,0.83-1.851,1.85-1.851c1.02,0,1.85,0.83,1.85,1.851
					C265.281,470.364,264.451,471.194,263.432,471.194z M268.17,470.286c-0.75,0-1.361-0.61-1.361-1.36s0.611-1.36,1.361-1.36
					s1.359,0.61,1.359,1.36S268.92,470.286,268.17,470.286z"/>
			</g>
			<path id="XMLID_336_" style="fill:#1D262D;" d="M281.596,466.547c-0.295-0.116-0.807-0.31-1.383-0.238
				c-0.551,0.069-0.844,0.341-0.844,1.007v0.866h2.229v1.717h-2.229v5.455h-1.932v-5.455h-1.34v-1.717h1.34v-0.889
				c0-1.68,0.895-2.782,2.568-2.782c0.642,0,1.156,0.121,1.59,0.308V466.547z"/>
			<path id="XMLID_334_" style="fill:#1D262D;" d="M286.297,469.878c-0.176-0.029-0.357-0.046-0.525-0.046
				c-0.894,0-1.51,0.548-1.51,1.613v3.908h-1.932v-7.172h1.873v0.784c0.451-0.673,1.139-0.977,2.02-0.977
				c0.414,0,0.848,0.128,1.096,0.337L286.297,469.878z"/>
			<path id="XMLID_331_" style="fill:#1D262D;" d="M293.965,471.757c0,0.222-0.016,0.488-0.037,0.651h-5.084
				c0.207,1.036,0.932,1.487,1.842,1.487c0.623,0,1.295-0.252,1.815-0.689l1.133,1.243c-0.814,0.748-1.852,1.089-3.057,1.089
				c-2.199,0-3.725-1.496-3.725-3.753c0-2.258,1.48-3.797,3.627-3.797C292.543,467.989,293.957,469.522,293.965,471.757z
				 M288.852,471.091h3.174c-0.178-0.918-0.732-1.436-1.561-1.436C289.555,469.654,289.021,470.202,288.852,471.091z"/>
			<path id="XMLID_328_" style="fill:#1D262D;" d="M301.619,471.757c0,0.222-0.016,0.488-0.037,0.651h-5.086
				c0.207,1.036,0.934,1.487,1.844,1.487c0.621,0,1.295-0.252,1.813-0.689l1.133,1.243c-0.814,0.748-1.85,1.089-3.057,1.089
				c-2.199,0-3.723-1.496-3.723-3.753c0-2.258,1.48-3.797,3.627-3.797C300.197,467.989,301.611,469.522,301.619,471.757z
				 M296.504,471.091h3.176c-0.178-0.918-0.734-1.436-1.563-1.436C297.207,469.654,296.674,470.202,296.504,471.091z"/>
			<path id="XMLID_325_" style="fill:#1D262D;" d="M309.965,471.764c0,2.154-1.496,3.775-3.473,3.775
				c-0.961,0-1.643-0.378-2.109-0.933v3.708h-1.924v-10.133h1.887v0.792c0.467-0.585,1.154-0.984,2.139-0.984
				C308.469,467.989,309.965,469.61,309.965,471.764z M304.287,471.764c0,1.133,0.748,1.977,1.844,1.977
				c1.139,0,1.85-0.881,1.85-1.977c0-1.095-0.711-1.976-1.85-1.976C305.035,469.788,304.287,470.632,304.287,471.764z"/>
			<path id="XMLID_322_" style="fill:#1D262D;" d="M313.068,465.835c0,0.696-0.541,1.23-1.236,1.23c-0.697,0-1.229-0.533-1.229-1.23
				c0-0.695,0.531-1.243,1.229-1.243C312.527,464.592,313.068,465.14,313.068,465.835z M312.809,475.353h-1.932v-7.172h1.932
				V475.353z"/>
			<path id="XMLID_320_" style="fill:#1D262D;" d="M316.031,470.735l2.703-2.554h2.367l-3.479,3.375l3.502,3.797h-2.377
				l-2.717-2.901v2.901H314.1v-10.658h1.932V470.735z"/>
		</g>
		<g>
			<path style="fill:#1D262D;" d="M184.412,475.289v-1.055c-0.527,0.718-1.391,1.23-2.387,1.23c-1.846,0-3.149-1.406-3.149-3.706
				c0-2.256,1.289-3.721,3.149-3.721c0.952,0,1.816,0.469,2.387,1.245v-3.765h1.099v9.771H184.412z M184.412,473.37v-3.208
				c-0.395-0.615-1.245-1.143-2.124-1.143c-1.42,0-2.27,1.172-2.27,2.739c0,1.567,0.85,2.725,2.27,2.725
				C183.167,474.483,184.017,473.985,184.412,473.37z"/>
			<path style="fill:#1D262D;" d="M186.932,471.744c0-2.051,1.465-3.706,3.486-3.706c2.139,0,3.398,1.67,3.398,3.794v0.278h-5.727
				c0.088,1.333,1.025,2.446,2.549,2.446c0.806,0,1.626-0.322,2.182-0.894l0.527,0.718c-0.703,0.703-1.655,1.084-2.812,1.084
				C188.44,475.465,186.932,473.956,186.932,471.744z M190.403,468.946c-1.509,0-2.256,1.274-2.314,2.358h4.643
				C192.718,470.25,192.015,468.946,190.403,468.946z"/>
			<path style="fill:#1D262D;" d="M194.607,474.352l0.571-0.791c0.469,0.542,1.362,1.011,2.329,1.011c1.085,0,1.67-0.513,1.67-1.216
				c0-1.714-4.38-0.659-4.38-3.281c0-1.099,0.952-2.036,2.636-2.036c1.202,0,2.051,0.454,2.623,1.025l-0.513,0.762
				c-0.424-0.513-1.201-0.894-2.109-0.894c-0.966,0-1.567,0.483-1.567,1.113c0,1.553,4.379,0.527,4.379,3.281
				c0,1.186-0.952,2.139-2.783,2.139C196.306,475.465,195.325,475.113,194.607,474.352z"/>
			<path style="fill:#1D262D;" d="M201.477,466.471c0-0.41,0.337-0.747,0.732-0.747c0.41,0,0.747,0.337,0.747,0.747
				c0,0.41-0.337,0.732-0.747,0.732C201.814,467.203,201.477,466.881,201.477,466.471z M201.667,475.289v-7.075h1.099v7.075H201.667
				z"/>
			<path style="fill:#1D262D;" d="M204.582,477.105l0.556-0.82c0.586,0.703,1.289,0.967,2.3,0.967c1.172,0,2.27-0.571,2.27-2.124
				v-1.011c-0.513,0.718-1.377,1.26-2.373,1.26c-1.846,0-3.149-1.377-3.149-3.662c0-2.271,1.289-3.677,3.149-3.677
				c0.952,0,1.802,0.469,2.373,1.245v-1.069h1.099v6.87c0,2.344-1.641,3.076-3.369,3.076
				C206.237,478.16,205.416,477.925,204.582,477.105z M209.708,473.253v-3.091c-0.381-0.615-1.23-1.143-2.109-1.143
				c-1.421,0-2.27,1.128-2.27,2.695c0,1.553,0.849,2.695,2.27,2.695C208.478,474.41,209.328,473.868,209.708,473.253z"/>
			<path style="fill:#1D262D;" d="M217.413,475.289v-4.629c0-1.245-0.63-1.641-1.582-1.641c-0.864,0-1.685,0.527-2.094,1.099v5.171
				h-1.099v-7.075h1.099v1.025c0.498-0.586,1.464-1.201,2.519-1.201c1.48,0,2.256,0.747,2.256,2.285v4.966H217.413z"/>
			<path style="fill:#1D262D;" d="M219.932,471.744c0-2.051,1.465-3.706,3.486-3.706c2.139,0,3.398,1.67,3.398,3.794v0.278h-5.727
				c0.088,1.333,1.025,2.446,2.548,2.446c0.806,0,1.626-0.322,2.183-0.894l0.527,0.718c-0.703,0.703-1.655,1.084-2.813,1.084
				C221.441,475.465,219.932,473.956,219.932,471.744z M223.404,468.946c-1.509,0-2.256,1.274-2.314,2.358h4.643
				C225.718,470.25,225.015,468.946,223.404,468.946z"/>
			<path style="fill:#1D262D;" d="M233.35,475.289v-1.055c-0.527,0.718-1.392,1.23-2.388,1.23c-1.845,0-3.149-1.406-3.149-3.706
				c0-2.256,1.289-3.721,3.149-3.721c0.952,0,1.817,0.469,2.388,1.245v-3.765h1.098v9.771H233.35z M233.35,473.37v-3.208
				c-0.396-0.615-1.245-1.143-2.124-1.143c-1.421,0-2.27,1.172-2.27,2.739c0,1.567,0.85,2.725,2.27,2.725
				C232.105,474.483,232.954,473.985,233.35,473.37z"/>
			<path style="fill:#1D262D;" d="M239.692,475.289v-9.771h1.099v3.765c0.571-0.776,1.421-1.245,2.388-1.245
				c1.845,0,3.149,1.465,3.149,3.721c0,2.3-1.304,3.706-3.149,3.706c-0.996,0-1.86-0.513-2.388-1.23v1.055H239.692z M242.9,474.483
				c1.436,0,2.285-1.157,2.285-2.725c0-1.567-0.85-2.739-2.285-2.739c-0.864,0-1.729,0.527-2.109,1.143v3.208
				C241.171,473.985,242.036,474.483,242.9,474.483z"/>
			<path style="fill:#1D262D;" d="M247.528,477.061c0.161,0.073,0.425,0.117,0.601,0.117c0.483,0,0.806-0.161,1.055-0.747
				l0.469-1.069l-2.959-7.148h1.186l2.358,5.801l2.344-5.801h1.201l-3.545,8.511c-0.425,1.024-1.143,1.421-2.08,1.436
				c-0.234,0-0.601-0.044-0.806-0.104L247.528,477.061z"/>
		</g>
	</g>
</g> -->
</svg>
